[center]

[img]http://www.shotpix.com/images/56102816364679644510.jpg[/img]

John Carter 2012 FULL CAM READNFO XviD - TAPE
 
http://www.imdb.com/title/tt0401729/

Video
ID                               : 0
Format                           : MPEG-4 Visual
Format profile                   : Advanced Simple@L5
Format settings, BVOP            : 2
Format settings, QPel            : No
Format settings, GMC             : No warppoints
Format settings, Matrix          : Default (H.263)
Muxing mode                      : Packed bitstream
Codec ID                         : XVID
Codec ID/Hint                    : XviD
Duration                         : 2h 0mn
Bit rate                         : 1 485 Kbps
Width                            : 720 pixels
Height                           : 356 pixels
Display aspect ratio             : 2.022
Frame rate                       : 25.000 fps
Color space                      : YUV
Chroma subsampling               : 4:2:0
Bit depth                        : 8 bits
Scan type                        : Progressive
Compression mode                 : Lossy
Bits/(Pixel*Frame)               : 0.232
Stream size                      : 1.25 GiB (92%)
Writing library                  : XviD 64

Audio
ID                               : 1
Format                           : MPEG Audio
Format version                   : Version 1
Format profile                   : Layer 3
Mode                             : Joint stereo
Mode extension                   : MS Stereo
Codec ID                         : 55
Codec ID/Hint                    : MP3
Duration                         : 2h 0mn
Bit rate mode                    : Constant
Bit rate                         : 128 Kbps
Channel(s)                       : 2 channels
Sampling rate                    : 44.1 KHz
Compression mode                 : Lossy
Stream size                      : 110 MiB (8%)
Alignment                        : Split accross interleaves
Interleave, duration             : 40 ms (1.00 video frame)


Sources - 
DeeP / own / who knows ... thanks 


audio is a mix of 
decent line and good cam
first 19 minutes are line, then rest is cam
hardcoded subs in english for alien speak

[img]http://www.shotpix.com/images/10925245185370088502.png[/img]
[img]http://www.shotpix.com/images/17642410003318708776.png[/img]
[img]http://www.shotpix.com/images/46206540798609364578.png[/img]
[img]http://www.shotpix.com/images/37986554111992518415.png[/img]
[img]http://www.shotpix.com/images/37986554111992518415.png[/img]
[img]http://www.shotpix.com/images/96001237239552522368.png[/img][/center]